<mxfile host="app.diagrams.net" modified="2021-02-08T16:21:33.580Z" agent="5.0 (Windows)" etag="0Eoj7wf3wbRjr9fLyQkn" version="14.3.0" type="github">
  <diagram name="Page-1" id="e56a1550-8fbb-45ad-956c-1786394a9013">
    <mxGraphModel dx="848" dy="651" grid="1" gridSize="10" guides="1" tooltips="1" connect="1" arrows="1" fold="1" page="1" pageScale="1" pageWidth="1100" pageHeight="850" background="#ffffff" math="0" shadow="0">
      <root>
        <mxCell id="0" />
        <mxCell id="1" parent="0" />
        <mxCell id="tAQY2yz-CDiR14RfnqwS-27" style="edgeStyle=orthogonalEdgeStyle;rounded=0;orthogonalLoop=1;jettySize=auto;html=1;exitX=0.5;exitY=0;exitDx=0;exitDy=0;" parent="1" source="tAQY2yz-CDiR14RfnqwS-7" edge="1">
          <mxGeometry relative="1" as="geometry">
            <mxPoint x="700" y="550" as="targetPoint" />
          </mxGeometry>
        </mxCell>
        <mxCell id="tAQY2yz-CDiR14RfnqwS-7" value="Usuario" style="swimlane;childLayout=stackLayout;horizontal=1;startSize=30;horizontalStack=0;rounded=1;fontSize=14;fontStyle=0;strokeWidth=2;resizeParent=0;resizeLast=1;shadow=0;dashed=0;align=center;" parent="1" vertex="1">
          <mxGeometry x="610" y="560" width="160" height="170" as="geometry" />
        </mxCell>
        <mxCell id="tAQY2yz-CDiR14RfnqwS-8" value="usuarioID&#xa;Username&#xa;Password&#xa;NombreApellido&#xa;Pais de Origen&#xa;Fecha de creacion&#xa;" style="align=left;strokeColor=none;fillColor=none;spacingLeft=4;fontSize=12;verticalAlign=top;resizable=0;rotatable=0;part=1;" parent="tAQY2yz-CDiR14RfnqwS-7" vertex="1">
          <mxGeometry y="30" width="160" height="140" as="geometry" />
        </mxCell>
        <mxCell id="tAQY2yz-CDiR14RfnqwS-12" value="Comentarios" style="swimlane;childLayout=stackLayout;horizontal=1;startSize=30;horizontalStack=0;rounded=1;fontSize=14;fontStyle=0;strokeWidth=2;resizeParent=0;resizeLast=1;shadow=0;dashed=0;align=center;" parent="1" vertex="1">
          <mxGeometry x="550" y="120" width="160" height="120" as="geometry" />
        </mxCell>
        <mxCell id="tAQY2yz-CDiR14RfnqwS-13" value="commentID&#xa;Contenido&#xa;Likes&#xa;Dislikes&#xa;" style="align=left;strokeColor=none;fillColor=none;spacingLeft=4;fontSize=12;verticalAlign=top;resizable=0;rotatable=0;part=1;" parent="tAQY2yz-CDiR14RfnqwS-12" vertex="1">
          <mxGeometry y="30" width="160" height="90" as="geometry" />
        </mxCell>
        <mxCell id="tAQY2yz-CDiR14RfnqwS-14" value="Video" style="swimlane;childLayout=stackLayout;horizontal=1;startSize=30;horizontalStack=0;rounded=1;fontSize=14;fontStyle=0;strokeWidth=2;resizeParent=0;resizeLast=1;shadow=0;dashed=0;align=center;" parent="1" vertex="1">
          <mxGeometry x="330" y="350" width="160" height="150" as="geometry" />
        </mxCell>
        <mxCell id="tAQY2yz-CDiR14RfnqwS-15" value="videoID&#xa;Titulo&#xa;Descripcion&#xa;Likes&#xa;Dislikes&#xa;Reproducciones&#xa;usuarioID&#xa;&#xa;" style="align=left;strokeColor=none;fillColor=none;spacingLeft=4;fontSize=12;verticalAlign=top;resizable=0;rotatable=0;part=1;" parent="tAQY2yz-CDiR14RfnqwS-14" vertex="1">
          <mxGeometry y="30" width="160" height="120" as="geometry" />
        </mxCell>
        <mxCell id="tAQY2yz-CDiR14RfnqwS-16" value="Publica" style="shape=rhombus;perimeter=rhombusPerimeter;whiteSpace=wrap;html=1;align=center;" parent="1" vertex="1">
          <mxGeometry x="340" y="570" width="120" height="60" as="geometry" />
        </mxCell>
        <mxCell id="tAQY2yz-CDiR14RfnqwS-21" value="" style="endArrow=none;html=1;rounded=0;" parent="1" edge="1">
          <mxGeometry relative="1" as="geometry">
            <mxPoint x="455" y="600" as="sourcePoint" />
            <mxPoint x="606" y="600" as="targetPoint" />
          </mxGeometry>
        </mxCell>
        <mxCell id="tAQY2yz-CDiR14RfnqwS-22" value="" style="endArrow=none;html=1;rounded=0;entryX=0.5;entryY=0;entryDx=0;entryDy=0;exitX=0.43;exitY=1.031;exitDx=0;exitDy=0;exitPerimeter=0;" parent="1" source="tAQY2yz-CDiR14RfnqwS-15" target="tAQY2yz-CDiR14RfnqwS-16" edge="1">
          <mxGeometry relative="1" as="geometry">
            <mxPoint x="390" y="510" as="sourcePoint" />
            <mxPoint x="550" y="510" as="targetPoint" />
          </mxGeometry>
        </mxCell>
        <mxCell id="tAQY2yz-CDiR14RfnqwS-25" value="0 .. *" style="text;html=1;align=center;verticalAlign=middle;resizable=0;points=[];autosize=1;" parent="1" vertex="1">
          <mxGeometry x="400" y="520" width="40" height="20" as="geometry" />
        </mxCell>
        <mxCell id="tAQY2yz-CDiR14RfnqwS-26" value="1" style="text;html=1;align=center;verticalAlign=middle;resizable=0;points=[];autosize=1;" parent="1" vertex="1">
          <mxGeometry x="540" y="580" width="20" height="20" as="geometry" />
        </mxCell>
        <mxCell id="tAQY2yz-CDiR14RfnqwS-30" value="Contiene" style="rhombus;whiteSpace=wrap;html=1;" parent="1" vertex="1">
          <mxGeometry x="370" y="160" width="80" height="60" as="geometry" />
        </mxCell>
        <mxCell id="tAQY2yz-CDiR14RfnqwS-33" value="" style="endArrow=none;html=1;rounded=0;entryX=0.5;entryY=1;entryDx=0;entryDy=0;exitX=0.5;exitY=0;exitDx=0;exitDy=0;" parent="1" source="tAQY2yz-CDiR14RfnqwS-14" target="tAQY2yz-CDiR14RfnqwS-30" edge="1">
          <mxGeometry relative="1" as="geometry">
            <mxPoint x="570" y="440" as="sourcePoint" />
            <mxPoint x="730" y="440" as="targetPoint" />
          </mxGeometry>
        </mxCell>
        <mxCell id="tAQY2yz-CDiR14RfnqwS-34" value="" style="endArrow=none;html=1;rounded=0;exitX=1;exitY=0.5;exitDx=0;exitDy=0;entryX=0;entryY=0.5;entryDx=0;entryDy=0;" parent="1" source="tAQY2yz-CDiR14RfnqwS-30" target="tAQY2yz-CDiR14RfnqwS-13" edge="1">
          <mxGeometry relative="1" as="geometry">
            <mxPoint x="570" y="440" as="sourcePoint" />
            <mxPoint x="730" y="440" as="targetPoint" />
          </mxGeometry>
        </mxCell>
        <mxCell id="tAQY2yz-CDiR14RfnqwS-35" value="0 .. *" style="text;html=1;align=center;verticalAlign=middle;resizable=0;points=[];autosize=1;" parent="1" vertex="1">
          <mxGeometry x="470" y="160" width="40" height="20" as="geometry" />
        </mxCell>
        <mxCell id="tAQY2yz-CDiR14RfnqwS-36" value="1" style="text;html=1;align=center;verticalAlign=middle;resizable=0;points=[];autosize=1;" parent="1" vertex="1">
          <mxGeometry x="430" y="280" width="20" height="20" as="geometry" />
        </mxCell>
      </root>
    </mxGraphModel>
  </diagram>
</mxfile>
